{"title":"Satya 2 2013 Hindi MoviE DVDSCR-AVI-mp3-PDR","uid":9176076,"size":454686016,"categoryP":"video","categoryS":"movies","magnet":"?xt=urn:btih:885c16f440ced71c1b5f4d30f366a121f2a638af&amp;dn=Satya+2+2013+Hindi+MoviE+DVDSCR-AVI-mp3-PDR&amp;tr=udp%3A%2F%2Ftracker.openbittorrent.com%3A80&amp;tr=udp%3A%2F%2Fopen.demonii.com%3A1337&amp;tr=udp%3A%2F%2Ftracker.coppersurfer.tk%3A6969&amp;tr=udp%3A%2F%2Fexodus.desync.com%3A6969","seeders":1,"leechers":0,"uploader":"jatt13","files":1,"time":1384152528,"description":"[img]http://imageshack.us/a/img577/6841/j1g9.jpg[/img]\n[img]http://imageshack.us/a/img9/1348/nrtk.jpg[/img]\nVideo\nID                             : 0\nFormat                         : AVC\nFormat/Info                    : Advanced Video Codec\nFormat profile                 : &lt;a class=&quot;__cf_email__&quot; href=&quot;/cdn-cgi/l/email-protection&quot; data-cfemail=&quot;90d8f9f7f8d0dca2bea1&quot;&gt;[email&amp;#160;protected]&lt;/a&gt;&lt;script cf-hash='f9e31' type=&quot;text/javascript&quot;&gt;\n/* &lt;![CDATA[ */!function(){try{var t=&quot;currentScript&quot;in document?document.currentScript:function(){for(var t=document.getElementsByTagName(&quot;script&quot;),e=t.length;e--;)if(t[e].getAttribute(&quot;cf-hash&quot;))return t[e]}();if(t&amp;&amp;t.previousSibling){var e,r,n,i,c=t.previousSibling,a=c.getAttribute(&quot;data-cfemail&quot;);if(a){for(e=&quot;&quot;,r=parseInt(a.substr(0,2),16),n=2;a.length-n;n+=2)i=parseInt(a.substr(n,2),16)^r,e+=String.fromCharCode(i);e=document.createTextNode(e),c.parentNode.replaceChild(e,c)}}}catch(u){}}();/* ]]&gt; */&lt;/script&gt;\nFormat settings, CABAC         : Yes\nFormat settings, ReFrames      : 4 frames\nCodec ID                       : H264\nDuration                       : 2h 17mn\nBit rate                       : 304 Kbps\nWidth                          : 640 pixels\nHeight                         : 272 pixels\nDisplay aspect ratio           : 2.35:1\nFrame rate mode                : Variable\nFrame rate                     : 23.976 fps\nColor space                    : YUV\nChroma subsampling             : 4:2:0\nBit depth                      : 8 bits\nScan type                      : Progressive\nBits/(Pixel*Frame)             : 0.073\nStream size                    : 299 MiB (69%)\nWriting library                : x264 core 138\nEncoding settings              : cabac=1 \nAudio\nID                             : 1\nFormat                         : MPEG Audio\nFormat version                 : Version 1\nFormat profile                 : Layer 3\nCodec ID                       : 55\nCodec ID/Hint                  : MP3\nDuration                       : 2h 17mn\nBit rate mode                  : Constant\nBit rate                       : 128 Kbps\nChannel count                  : 2 channels\nSampling rate                  : 44.1 KHz\nCompression mode               : Lossy\nStream size                    : 126 MiB (29%)\nAlignment                      : Split accross interleaves\nInterleave, duration           : 42 ms (1.00 video frame)\nWriting library                : LAMELAME_MAJOR_VERSI\n[img]http://imageshack.us/a/img841/9894/zzf5.jpg[/img]\n[img]http://imageshack.us/a/img109/8159/t8wc.png[/img]\n[img]http://imageshack.us/a/img708/9272/n8lr.png[/img]\n[img]http://imageshack.us/a/img18/5600/50bt.png[/img]\n[img]http://imageshack.us/a/img826/2383/lgcb.png[/img]\n[img]http://imageshack.us/a/img843/447/7d5k.png[/img]\n[img]http://imageshack.us/a/img546/927/yiv8.png[/img]\n[img]http://imageshack.us/a/img10/3328/zxou.png[/img]\n[img]http://imageshack.us/a/img543/1897/x1c2.png[/img]\n[img]http://imageshack.us/a/img34/5081/qdwv.png[/img]","torrent":{"xt":"urn:btih:885c16f440ced71c1b5f4d30f366a121f2a638af","amp;dn":"Satya+2+2013+Hindi+MoviE+DVDSCR-AVI-mp3-PDR","amp;tr":["udp%3A%2F%2Ftracker.openbittorrent.com%3A80","udp%3A%2F%2Fopen.demonii.com%3A1337","udp%3A%2F%2Ftracker.coppersurfer.tk%3A6969","udp%3A%2F%2Fexodus.desync.com%3A6969"],"infoHash":"885c16f440ced71c1b5f4d30f366a121f2a638af","infoHashBuffer":{"type":"Buffer","data":[136,92,22,244,64,206,215,28,27,95,77,48,243,102,161,33,242,166,56,175]},"announce":[],"urlList":[]}}